# xmcd
#
# Track frame offsets:
#	150
#	12023
#	23310
#	38665
#	49395
#	62665
#	73853
#	83343
#	103258
#	113475
#	122863
#	137780
#	149558
#	159263
#	172643
#	188268
#	201305
#	214535
#	231048
#	245913
#	270678
#	285080
#	295120
#	307873
#	320733
#
# Disc length: 4582 seconds
#
# Revision: 3
# Processed by: cddbd v1.5.2PL0 Copyright (c) Steve Scherf et al.
# Submitted via: EZCDAudioConverter 1.3.4.1
#
DISCID=5211e419
DTITLE=J J Cale - Anyway The Wind Blows 1-2
DYEAR=1997
DGENRE=Blues
TTITLE0=J J Cale - Call Me The Breeze
TTITLE1=J J Cale - Crazy Mama
TTITLE2=J J Cale - Magnolia
TTITLE3=J J Cale - After Midnight
TTITLE4=J J Cale - Lies
TTITLE5=J J Cale - Changes
TTITLE6=J J Cale - If You're Ever In Oklahoma
TTITLE7=J J Cale - Midnight In Memphis
TTITLE8=J J Cale - Cajun Moon
TTITLE9=J J Cale - Rock And Roll Records
TTITLE10=J J Cale - Anyway The Wind Blows
TTITLE11=J J Cale - Crying
TTITLE12=J J Cale - Everlovin' Woman
TTITLE13=J J Cale - I Got The Same Old Blues
TTITLE14=J J Cale - Woke Up This Morning
TTITLE15=J J Cale - Cocaine
TTITLE16=J J Cale - The Woman That Got Away
TTITLE17=J J Cale - Ride Me High
TTITLE18=J J Cale - Hey Baby
TTITLE19=J J Cale - Durango
TTITLE20=J J Cale - I'll Make Love To You Anytime
TTITLE21=J J Cale - Don't Cry Sister
TTITLE22=J J Cale - Thirteen Days
TTITLE23=J J Cale - Things Ain't Simple
TTITLE24=Cale, J.J. - Sensitive Kind
EXTD=
EXTT0=
EXTT1=
EXTT2=
EXTT3=
EXTT4=
EXTT5=
EXTT6=
EXTT7=
EXTT8=
EXTT9=
EXTT10=
EXTT11=
EXTT12=
EXTT13=
EXTT14=
EXTT15=
EXTT16=
EXTT17=
EXTT18=
EXTT19=
EXTT20=
EXTT21=
EXTT22=
EXTT23=
EXTT24=
PLAYORDER=
